# xmcd
#
# Track frame offsets:
#	150
#	13245
#	26302
#	37385
#	50167
#	62542
#	78781
#	91210
#	103488
#	119168
#	131152
#	144483
# Disc length: 2100 seconds
# Revision: 1
# Processed by: cddbd v1.5.1PL0 Copyright (c) Steve Scherf et al.
#
# Submitted via: libkcddb 0.21
#
DISCID=af08320c
DTITLE=Fauzi Fauzan - Love in Country
DYEAR=2004
DGENRE=Country
TTITLE0=hatimu hatiku
TTITLE1=Oh la la
TTITLE2=Silver threads and golden needles
TTITLE3=please help me I am falling
TTITLE4=Voorman
TTITLE5=Dewi rindu
TTITLE6=Oh lonesome me
TTITLE7=That Silver haired daddy of mine
TTITLE8=
TTITLE9=My grand father's clock
TTITLE10=I'm so lonesome I could cry
TTITLE11=Hatimu Hatiku
EXTD=
EXTT0=
EXTT1=
EXTT2=
EXTT3=
EXTT4=
EXTT5=
EXTT6=
EXTT7=
EXTT8=
EXTT9=
EXTT10=
EXTT11=
PLAYORDER=
